<svg width="28" height="22" viewBox="0 0 28 22" fill="none" xmlns="http://www.w3.org/2000/svg">
<path d="M3.3125 19.3125H24.6875V3.3125H3.3125V19.3125ZM0.6875 0.625H27.3125V22H0.6875V0.625ZM20.6875 14V8.625H19.3125V14H20.6875ZM22 6C22.375 6 22.6875 6.125 22.9375 6.375C23.1875 6.625 23.3125 6.9375 23.3125 7.3125V15.3125C23.3125 15.6875 23.1875 16 22.9375 16.25C22.6875 16.5 22.375 16.625 22 16.625H18C17.625 16.625 17.3125 16.5 17.0625 16.25C16.8125 16 16.6875 15.6875 16.6875 15.3125V7.3125C16.6875 6.9375 16.8125 6.625 17.0625 6.375C17.3125 6.125 17.625 6 18 6H22ZM12.6875 14V8.625H11.3125V14H12.6875ZM14 6C14.375 6 14.6875 6.125 14.9375 6.375C15.1875 6.625 15.3125 6.9375 15.3125 7.3125V15.3125C15.3125 15.6875 15.1875 16 14.9375 16.25C14.6875 16.5 14.375 16.625 14 16.625H10C9.625 16.625 9.3125 16.5 9.0625 16.25C8.8125 16 8.6875 15.6875 8.6875 15.3125V7.3125C8.6875 6.9375 8.8125 6.625 9.0625 6.375C9.3125 6.125 9.625 6 10 6H14ZM4.6875 6H7.3125V16.625H4.6875V6Z" fill="#0D0D0C"/>
</svg>
