<svg width="40" height="33" viewBox="0 0 40 33" fill="none" xmlns="http://www.w3.org/2000/svg">
<path d="M20.2632 8.4669L23.9812 19.8764C24.1458 20.3815 24.0979 20.8901 23.8375 21.4023C23.5971 21.875 23.2095 22.1985 22.6747 22.3728L11.2652 26.0907C10.7304 26.265 10.2118 26.2368 9.70933 26.0061C9.22691 25.7361 8.9034 25.3485 8.73881 24.8434L5.02084 13.4339C4.73038 12.5425 4.74605 11.6828 5.06786 10.8549C5.40971 9.98754 5.94301 9.30431 6.66779 8.8052L6.01424 6.79962L8.86662 5.87013L9.47659 7.742L13.3095 6.493L12.6995 4.62113L15.5519 3.69164L16.2054 5.69721C17.0851 5.67349 17.9037 5.91618 18.6612 6.42529C19.4388 6.89499 19.9728 7.57553 20.2632 8.4669ZM8.17176 16.5977L8.79627 18.5141L18.2893 15.4207L18.8993 17.2925L20.8157 16.668L19.5813 12.8797L8.17176 16.5977Z" fill="#0D0D0C"/>
<path d="M23.468 10.2211L20.529 17.6785L23.3903 17.1938L25.1953 19.5175L28.1343 12.0601L23.468 10.2211ZM35.3541 12.7893C35.8484 12.9841 36.21 13.3449 36.439 13.8718C36.6795 14.3697 36.7023 14.8657 36.5075 15.36L30.6296 30.2748C30.4348 30.769 30.074 31.1306 29.547 31.3596C29.0316 31.5596 28.5267 31.5621 28.0325 31.3674L16.8682 26.9675C16.3739 26.7727 16.0066 26.4264 15.7661 25.9286C15.5371 25.4017 15.52 24.8911 15.7148 24.3968L21.5927 9.48204C21.7875 8.98779 22.1426 8.6407 22.6581 8.44077C23.185 8.21176 23.6956 8.19465 24.1898 8.38944L35.3541 12.7893Z" fill="#0D0D0C"/>
</svg>
