<svg width="28" height="28" viewBox="0 0 28 28" fill="none" xmlns="http://www.w3.org/2000/svg">
<path d="M14 0.625C15.8333 0.625 17.5417 0.979167 19.125 1.6875C20.75 2.35417 22.1667 3.3125 23.375 4.5625C24.625 5.77083 25.5833 7.1875 26.25 8.8125C26.9583 10.3958 27.3125 12.1042 27.3125 13.9375C27.3125 15.7708 26.9583 17.5 26.25 19.125C25.5833 20.7083 24.625 22.125 23.375 23.375C22.1667 24.5833 20.75 25.5417 19.125 26.25C17.5417 26.9167 15.8333 27.25 14 27.25C12.1667 27.25 10.4375 26.9167 8.8125 26.25C7.22917 25.5417 5.8125 24.5833 4.5625 23.375C3.35417 22.125 2.39583 20.7083 1.6875 19.125C1.02083 17.5 0.6875 15.7708 0.6875 13.9375C0.6875 12.1042 1.02083 10.3958 1.6875 8.8125C2.39583 7.1875 3.35417 5.77083 4.5625 4.5625C5.8125 3.3125 7.22917 2.35417 8.8125 1.6875C10.4375 0.979167 12.1667 0.625 14 0.625ZM15.1875 21.625C15.3542 21.5833 15.6458 21.5 16.0625 21.375C16.5208 21.25 16.9792 21.0417 17.4375 20.75C17.9375 20.4583 18.3542 20.0417 18.6875 19.5C19.0208 18.9167 19.1875 18.1875 19.1875 17.3125C19.1875 16.3958 18.9167 15.5417 18.375 14.75C17.8333 13.9583 16.7708 13.2917 15.1875 12.75C14.0208 12.3333 13.1458 11.9583 12.5625 11.625C11.9792 11.2917 11.6875 10.8125 11.6875 10.1875C11.6875 9.72917 11.8125 9.375 12.0625 9.125C12.3542 8.83333 12.6875 8.625 13.0625 8.5C13.4375 8.375 13.7708 8.3125 14.0625 8.3125C14.6458 8.3125 15.1042 8.4375 15.4375 8.6875C15.8125 8.9375 16.0833 9.20833 16.25 9.5C16.4583 9.75 16.5833 9.95833 16.625 10.125L18.75 9.25C18.6667 9.04167 18.5 8.72917 18.25 8.3125C18 7.89583 17.625 7.5 17.125 7.125C16.625 6.70833 15.9792 6.41667 15.1875 6.25V4.625H12.8125V6.3125C11.9792 6.47917 11.3125 6.77083 10.8125 7.1875C10.3542 7.60417 10.0208 8.04167 9.8125 8.5C9.60417 8.95833 9.47917 9.35417 9.4375 9.6875C9.39583 10.0208 9.375 10.2083 9.375 10.25C9.375 11 9.52083 11.625 9.8125 12.125C10.1458 12.625 10.5417 13.0417 11 13.375C11.5 13.7083 12 13.9792 12.5 14.1875C13 14.3542 13.4375 14.5 13.8125 14.625C14.8542 15 15.625 15.3958 16.125 15.8125C16.625 16.1875 16.875 16.7083 16.875 17.375C16.875 18.125 16.5833 18.6667 16 19C15.4167 19.3333 14.8125 19.5 14.1875 19.5C13.6042 19.5 13.1042 19.375 12.6875 19.125C12.2708 18.875 11.9375 18.5833 11.6875 18.25C11.4792 17.875 11.3125 17.5417 11.1875 17.25C11.1042 16.9583 11.0417 16.7708 11 16.6875L8.8125 17.625C9.10417 18.5833 9.5 19.3333 10 19.875C10.5 20.4167 11.0208 20.8125 11.5625 21.0625C12.1042 21.3125 12.5208 21.4792 12.8125 21.5625V23.25H15.1875V21.625Z" fill="#0D0D0C"/>
</svg>
